<svg xmlns="http://www.w3.org/2000/svg" xmlns:xlink="http://www.w3.org/1999/xlink" viewBox="0 0 60 16" class="design-iconfont">
  <defs>
    <linearGradient x1="0%" y1="46.4444444%" x2="100%" y2="53.5555556%" id="yntub7o8da">
      <stop stop-color="#E5E8F7" offset="0%"/>
      <stop stop-color="#B5B8C8" offset="100%"/>
    </linearGradient>
    <linearGradient x1="73.8284774%" y1="50%" x2="0%" y2="50%" id="sk5rr8qkcc">
      <stop stop-color="#E5E8F7" offset="0%"/>
      <stop stop-color="#B5B8C8" offset="100%"/>
    </linearGradient>
    <path d="M1.50730635,0.142448908 L0.358680234,1.26524306 C0.161210219,1.45827209 0.157610084,1.77483411 0.350639109,1.97230412 C0.351006445,1.97267991 0.351374373,1.97305512 0.351742892,1.97342974 L3.26503174,4.93500582 C3.45868243,5.13186624 3.77525423,5.13446823 3.97211464,4.94081754 C3.9729995,4.93994711 3.97388112,4.93907338 3.97475947,4.93819638 L6.94408196,1.97345366 C7.13949475,1.77834227 7.13973908,1.46175988 6.94462769,1.26634709 C6.94319762,1.26491481 6.94175886,1.26349123 6.9403115,1.26207642 L5.79492488,0.142448908 C5.70150464,0.0511296366 5.57605393,-1.25003407e-16 5.44541492,0 L1.85681632,0 C1.72617731,-1.98046608e-16 1.6007266,0.0511296366 1.50730635,0.142448908 Z" id="eto7k9glfb"/>
  </defs>
  <g fill="none" fill-rule="evenodd">
    <path d="M8,0 L52,0 C56.418278,-8.11624501e-16 60,3.581722 60,8 C60,12.418278 56.418278,16 52,16 L8,16 C3.581722,16 5.41083001e-16,12.418278 0,8 C-5.41083001e-16,3.581722 3.581722,8.11624501e-16 8,0 Z" fill="url(#yntub7o8da)"/>
    <path d="M22.7906897,12.436 L22.7906897,12.085 L25.3044828,12.085 L25.3044828,12.436 L26.1982759,12.436 L26.1982759,7.954 L24.2524138,7.954 L24.2524138,6.496 L26.58,6.496 L26.58,5.668 L24.2524138,5.668 L24.2524138,4.102 L23.3586207,4.102 L23.3586207,7.954 L21.9062069,7.954 L21.9062069,12.436 L22.7906897,12.436 Z M19.4575862,12.22 C20.3048276,12.013 21.0496552,11.743 21.692069,11.419 L21.5524138,10.663 C21.1427586,10.897 20.7331034,11.086 20.3234483,11.23 L20.3234483,9.367 L21.5617241,9.367 L21.5617241,8.575 L20.3234483,8.575 L20.3234483,7.657 L21.2265517,7.657 L21.2265517,6.892 L18.9734483,6.892 C19.1410345,6.577 19.3086207,6.244 19.4575862,5.884 L21.3941379,5.884 L21.3941379,5.065 L19.7555172,5.065 C19.83,4.822 19.9044828,4.57 19.9789655,4.309 L19.1317241,4.138 C18.8803448,5.182 18.4613793,6.163 17.8841379,7.063 L18.6010345,7.504 C18.7127586,7.333 18.8151724,7.153 18.9268966,6.973 L18.9268966,7.657 L19.4575862,7.657 L19.4575862,8.575 L18.2286207,8.575 L18.2286207,9.367 L19.4575862,9.367 L19.4575862,11.149 C19.4575862,11.293 19.3365517,11.41 19.0944828,11.491 L19.4575862,12.22 Z M25.3044828,11.248 L22.7906897,11.248 L22.7906897,8.773 L25.3044828,8.773 L25.3044828,11.248 Z M30.4344828,12.328 L30.4344828,11.896 L34.1027586,11.896 L34.1027586,12.328 L35.0058621,12.328 L35.0058621,7.63 L30.2482759,7.63 C30.6951724,6.946 31.0675862,6.199 31.3562069,5.398 L35.6762069,5.398 L35.6762069,4.57 L27.4458621,4.57 L27.4458621,5.398 L30.3972414,5.398 C29.7362069,7.027 28.6748276,8.368 27.2037931,9.412 L27.7531034,10.267 C28.4048276,9.772 29.0006897,9.214 29.522069,8.602 L29.522069,12.328 L30.4344828,12.328 Z M34.1027586,11.068 L30.4344828,11.068 L30.4344828,8.458 L34.1027586,8.458 L34.1027586,11.068 Z M36.9424138,7.882 C37.5196552,7.576 38.0596552,7.252 38.5624138,6.91 L38.5624138,7.621 L43.1896552,7.621 L43.1896552,6.946 C43.6737931,7.288 44.1858621,7.594 44.7444828,7.873 L45.2286207,7.045 C43.7017241,6.325 42.3610345,5.344 41.187931,4.102 L40.5362069,4.102 C39.4562069,5.281 38.0968966,6.262 36.4675862,7.054 L36.9424138,7.882 Z M43.0034483,6.811 L38.702069,6.811 C39.54,6.226 40.2568966,5.578 40.862069,4.867 C41.4858621,5.587 42.2027586,6.235 43.0034483,6.811 Z M43.7203448,12.418 L44.4558621,11.914 C43.9903448,11.257 43.3386207,10.483 42.4913793,9.592 L41.8024138,10.015 C42.1375862,10.375 42.4448276,10.726 42.7241379,11.077 C41.4765517,11.221 40.1917241,11.329 38.8510345,11.401 C39.4003448,10.843 39.8844828,10.195 40.3034483,9.448 L44.642069,9.448 L44.642069,8.62 L37.1006897,8.62 L37.1006897,9.448 L39.2793103,9.448 C38.9255172,10.078 38.4972414,10.672 37.9944828,11.239 C37.9013793,11.338 37.7524138,11.419 37.5382759,11.473 L37.7803448,12.211 C39.9589655,12.085 41.7744828,11.914 43.2175862,11.698 C43.3944828,11.941 43.562069,12.184 43.7203448,12.418 Z M52.8351724,6.793 L52.8351724,4.39 L47.5189655,4.39 L47.5189655,6.793 L52.8351724,6.793 Z M51.9786207,6.055 L48.3755172,6.055 L48.3755172,5.146 L51.9786207,5.146 L51.9786207,6.055 Z M47.8448276,10.888 L47.8448276,8.125 L52.5093103,8.125 L52.5093103,10.753 L53.3844828,10.753 L53.3844828,7.342 L46.9696552,7.342 L46.9696552,10.888 L47.8448276,10.888 Z M46.4389655,12.463 C48.2358621,12.301 49.3717241,11.932 49.8372414,11.374 C50.2841379,10.924 50.5727586,10.024 50.7031034,8.674 L49.8093103,8.593 C49.7348276,9.673 49.4927586,10.429 49.0737931,10.87 C48.5896552,11.338 47.5934483,11.608 46.0944828,11.68 L46.4389655,12.463 Z M53.7382759,12.472 L54.2224138,11.761 C53.2168966,11.32 52.1182759,10.942 50.907931,10.627 L50.4703448,11.266 C51.5875862,11.554 52.6768966,11.959 53.7382759,12.472 Z" fill="#55586C" fill-rule="nonzero"/>
    <path fill="#55586C" d="M6.20689655 0A6.20689655 6 0 1 0 6.20689655 12A6.20689655 6 0 1 0 6.20689655 0Z" transform="translate(2.068966 2)"/>
    <g transform="translate(4.624747 5.850467)">
      <mask id="4jku7jmmyd" fill="#fff">
        <use xlink:href="#eto7k9glfb"/>
      </mask>
      <use fill="#FFF" fill-rule="nonzero" xlink:href="#eto7k9glfb"/>
      <path fill="url(#sk5rr8qkcc)" mask="url(#4jku7jmmyd)" d="M3.65111562 -1.54164299H7.30223124V5.95835701H3.65111562z"/>
    </g>
  </g>
</svg>
