<?xml version="1.0" encoding="UTF-8"?>
<svg width="16px" height="16px" viewBox="0 0 16 16" version="1.1" xmlns="http://www.w3.org/2000/svg" xmlns:xlink="http://www.w3.org/1999/xlink">
    <title>icon/预售</title>
    <defs>
        <linearGradient x1="50%" y1="0%" x2="50%" y2="100%" id="linearGradient-1">
            <stop stop-color="#FF3457" offset="0%"></stop>
            <stop stop-color="#FF738C" offset="100%"></stop>
        </linearGradient>
    </defs>
    <g id="icon/预售" stroke="none" stroke-width="1" fill="none" fill-rule="evenodd">
        <g id="图标" fill="url(#linearGradient-1)">
            <circle id="椭圆形" cx="8" cy="8" r="8"></circle>
        </g>
        <g id="图标" transform="translate(2.000000, 2.000000)">
            <polygon id="矩形" points="0 0 12 0 12 12 0 12"></polygon>
            <path d="M5.34876958,1.07374461 L5.52681674,1.23723101 L5.52681674,1.23723101 L5.86559116,1.55620485 C7.22904041,2.86304319 7.99110434,3.89214005 8.15178296,4.64349542 C8.27944815,4.39740307 8.50717166,4.13124144 8.8349535,3.84501053 L8.96256283,3.73673437 C9.01191131,3.69599514 9.08382271,3.70437747 9.12318145,3.75545684 C9.13860209,3.77546959 9.1473353,3.80011973 9.14807009,3.82570687 L9.15307574,3.96976741 L9.16762519,4.234429 C9.19984583,4.69096919 9.26257299,4.98980944 9.35580666,5.13094976 L9.44348378,5.25650883 L9.58136852,5.44830425 L9.65566514,5.56224564 C9.82665329,5.84111172 9.97600469,6.2227094 9.99783241,6.95298263 L10,7.15634107 L9.99897938,7.28374898 C9.98994242,7.67820549 9.94272957,7.98243334 9.86490439,8.21634418 C9.55662284,9.40622936 8.74850329,10.3853303 7.68754257,10.8969075 C7.70950833,10.6393154 7.71469391,10.3683504 7.71469391,10.0991213 C7.71469391,9.75342398 7.63943868,9.37889995 7.51122607,9.00759435 L7.47866472,8.91643038 C7.43858855,8.8078238 7.39412031,8.69971916 7.34582135,8.59292322 L7.30418467,8.50474498 C7.23850206,8.36619935 7.16651271,8.23027053 7.08947538,8.09875891 L6.94858787,7.87133354 L6.87657987,7.76500637 L6.76946898,7.61656069 L6.66641109,7.48432 L6.56073518,7.358689 L6.50165176,7.29259574 L6.3702505,7.15605279 L6.2991751,7.0879786 L6.21108092,7.00919624 L6.14417532,6.9534798 C6.09631302,6.91489485 6.04829938,6.87892824 6.00028573,6.84579643 C5.96362448,6.9406643 5.92528328,7.03299095 5.88562857,7.12302004 L5.78550659,7.34024877 C5.72684311,7.46220509 5.66635056,7.57964565 5.60487487,7.69361288 L5.48184308,7.91548308 L5.39758964,8.06178546 L5.04745233,8.65266785 C4.71339018,9.22312898 4.44915453,9.74669024 4.44915453,10.3526271 C4.44915453,10.5784455 4.48338524,10.7959885 4.54676879,11 L4.443194,10.95676 C3.03900476,10.3420063 2.04451546,8.92095678 2.0014554,7.25434187 L2,7.14155323 C2,7.03000262 2.00135983,6.92370488 2.00394683,6.82241298 L2.01525665,6.53330775 C2.03734563,6.12143507 2.08159821,5.80592811 2.13592516,5.56427565 L2.17350295,5.41386837 L2.21326975,5.28386169 L2.23372527,5.22604537 L2.27528306,5.1238604 L2.31703985,5.03837047 L2.35819964,4.96809336 L2.39796644,4.91154683 L2.43554423,4.86724868 L2.47013703,4.83371668 L2.50094884,4.8094686 L2.53833592,4.78726149 C2.55734016,4.78051481 2.57824335,4.78927863 2.58735453,4.8078129 L2.68045541,4.99720183 L2.83581383,5.29691636 L2.95012861,5.51216529 L2.982674,5.5829063 L3.02873898,5.70590383 L3.10411952,5.95743508 L3.14293878,5.9579345 L3.14870692,5.82177444 C3.19054187,5.31569689 3.45480145,4.75952969 3.77279863,4.19011802 L3.95056708,3.8784378 L4.27002835,3.32890368 L4.40209033,3.09575898 L4.52821751,2.86374397 C4.72265711,2.49611185 4.83554992,2.03410746 4.86689592,1.47773078 L4.87429704,1.28877595 C4.87803778,1.12546426 5.00897432,0.996212817 5.16675198,1 C5.21711493,1.00132071 5.26595526,1.01629937 5.30850007,1.04308923 L5.34876958,1.07374461 Z" id="路径" fill="#FFFFFF"></path>
        </g>
    </g>
</svg>