<svg t="1608803235784" class="icon" viewBox="0 0 1024 1024" version="1.1" xmlns="http://www.w3.org/2000/svg" p-id="2405" width="200" height="200"><path d="M810.666667 128a85.333333 85.333333 0 0 1 85.333333 85.333333v597.333334a85.333333 85.333333 0 0 1-85.333333 85.333333H213.333333a85.333333 85.333333 0 0 1-85.333333-85.333333V213.333333a85.333333 85.333333 0 0 1 85.333333-85.333333h597.333334z m0 85.333333H213.333333v597.333334h597.333334V213.333333z m-353.152 354.261334l0.298666 0.341333a42.453333 42.453333 0 0 1 0 60.032L329.301333 756.48a42.453333 42.453333 0 0 1-60.032 0l-0.341333-0.298667a42.453333 42.453333 0 0 1 0-60.032l128.554667-128.554666a42.453333 42.453333 0 0 1 60.032 0z m169.685333 0l34.090667 34.090666 34.133333-34.090666a42.453333 42.453333 0 0 1 59.989333 0l0.341334 0.341333a42.453333 42.453333 0 0 1 0 60.032l-34.133334 34.090667 34.133334 34.090666a42.453333 42.453333 0 0 1 0 60.032l-0.341334 0.298667a42.453333 42.453333 0 0 1-59.989333 0l-34.133333-34.090667-34.090667 34.133334a42.453333 42.453333 0 0 1-59.989333 0l-0.341334-0.341334a42.453333 42.453333 0 0 1 0-60.032l34.090667-34.090666-34.090667-34.133334a42.453333 42.453333 0 0 1 0-59.989333l0.341334-0.341333a42.453333 42.453333 0 0 1 59.989333 0zM384 256a42.666667 42.666667 0 0 1 42.666667 42.666667v42.666666h42.88c23.466667 0 42.453333 18.986667 42.453333 42.453334v0.426666c0 23.466667-18.986667 42.453333-42.453333 42.453334H426.666667v42.666666a42.666667 42.666667 0 0 1-85.333334 0v-42.666666H298.453333A42.453333 42.453333 0 0 1 256 384.213333v-0.426666c0-23.466667 18.986667-42.453333 42.453333-42.453334H341.333333V298.666667a42.666667 42.666667 0 0 1 42.666667-42.666667z m341.546667 85.333333c23.466667 0 42.453333 18.986667 42.453333 42.453334v0.426666c0 23.466667-18.986667 42.453333-42.453333 42.453334h-128.469334a42.453333 42.453333 0 0 1-42.453333-42.453334v-0.426666c0-23.466667 18.986667-42.453333 42.453333-42.453334h128.469334z" p-id="2406" fill="currentColor"></path></svg>
