<svg xmlns="http://www.w3.org/2000/svg" viewBox="0 0 1201 100" class="design-iconfont">
  <g fill="none" fill-rule="evenodd">
    <g transform="translate(1000)">
      <path fill="#FFF" d="M0 0H200V100H0z"/>
      <rect fill="#F2F2F2" x="10" y="10" width="180" height="80" rx="8"/>
      <text font-family="PingFangSC-Medium, PingFang SC" font-size="12" font-weight="400" fill="#D9D9D9">
        <tspan x="75.742" y="55">品牌logo</tspan>
      </text>
    </g>
    <g transform="translate(800)">
      <path fill="#FFF" d="M0 0H200V100H0z"/>
      <rect fill="#F2F2F2" x="10" y="10" width="180" height="80" rx="8"/>
      <text font-family="PingFangSC-Medium, PingFang SC" font-size="12" font-weight="400" fill="#D9D9D9">
        <tspan x="75.742" y="55">品牌logo</tspan>
      </text>
    </g>
    <g transform="translate(600)">
      <path fill="#FFF" d="M0 0H200V100H0z"/>
      <rect fill="#F2F2F2" x="10" y="10" width="180" height="80" rx="8"/>
      <text font-family="PingFangSC-Medium, PingFang SC" font-size="12" font-weight="400" fill="#D9D9D9">
        <tspan x="75.742" y="55">品牌logo</tspan>
      </text>
    </g>
    <g transform="translate(400)">
      <path fill="#FFF" d="M0 0H200V100H0z"/>
      <rect fill="#F2F2F2" x="10" y="10" width="180" height="80" rx="8"/>
      <text font-family="PingFangSC-Medium, PingFang SC" font-size="12" font-weight="400" fill="#D9D9D9">
        <tspan x="75.742" y="55">品牌logo</tspan>
      </text>
    </g>
    <g transform="translate(200)">
      <path fill="#FFF" d="M0 0H200V100H0z"/>
      <rect fill="#F2F2F2" x="10" y="10" width="180" height="80" rx="8"/>
      <text font-family="PingFangSC-Medium, PingFang SC" font-size="12" font-weight="400" fill="#D9D9D9">
        <tspan x="75.742" y="55">品牌logo</tspan>
      </text>
    </g>
    <g>
      <path fill="#FFF" d="M0 0H200V100H0z"/>
      <rect fill="#F2F2F2" x="10" y="10" width="180" height="80" rx="8"/>
      <text font-family="PingFangSC-Medium, PingFang SC" font-size="12" font-weight="400" fill="#D9D9D9">
        <tspan x="75.742" y="55">品牌logo</tspan>
      </text>
    </g>
    <g fill="#F4F5F7">
      <path d="M0 0H1V100H0z" transform="translate(200)"/>
      <path d="M200 0H201V100H200z" transform="translate(200)"/>
      <path d="M399 0H400V100H399z" transform="translate(200)"/>
      <path d="M598 0H599V100H598z" transform="translate(200)"/>
      <path d="M799 0H800V100H799z" transform="translate(200)"/>
    </g>
    <path fill="#F4F5F7" transform="rotate(90 600.5 .5)" d="M600 -599.5H601V600.5H600z"/>
  </g>
</svg>
