<svg xmlns="http://www.w3.org/2000/svg" viewBox="0 0 24 24" class="design-iconfont">
  <path d="M12,2 C17.5228475,2 22,6.4771525 22,12 C22,17.5228475 17.5228475,22 12,22 C10.564873,22 9.20035487,21.6976872 7.96665457,21.1532706 L7.63347951,20.998836 L4.49999995,20.9996232 C3.72030407,21.0006677 3.0794021,20.4059905 3.00652627,19.6453599 L2.9996234,19.5009018 C2.99962333,19.5006011 2.99962334,19.5003004 3.00052516,19.5000001 L3.00162189,16.3674623 C2.3599484,15.0478608 2,13.5659656 2,12 C2,6.4771525 6.4771525,2 12,2 Z M12,4 C7.581722,4 4,7.581722 4,12 C4,13.1061468 4.22355171,14.1771481 4.65044783,15.1662519 L4.8002501,15.4928557 L5.10253139,16.1144972 L5.10253139,18.9987409 L8.09365856,18.9987409 L8.50789689,19.2001158 C9.58584023,19.7241398 10.7712358,20 12,20 C16.418278,20 20,16.418278 20,12 C20,7.581722 16.418278,4 12,4 Z M8,11 C8.55228475,11 9,11.4477153 9,12 C9,12.5522847 8.55228475,13 8,13 C7.44771525,13 7,12.5522847 7,12 C7,11.4477153 7.44771525,11 8,11 Z M12,11 C12.5522847,11 13,11.4477153 13,12 C13,12.5522847 12.5522847,13 12,13 C11.4477153,13 11,12.5522847 11,12 C11,11.4477153 11.4477153,11 12,11 Z M16,11 C16.5522847,11 17,11.4477153 17,12 C17,12.5522847 16.5522847,13 16,13 C15.4477153,13 15,12.5522847 15,12 C15,11.4477153 15.4477153,11 16,11 Z" fill="#252D37" fill-rule="evenodd"/>
</svg>
