<svg xmlns="http://www.w3.org/2000/svg" viewBox="0 0 24 24" fill="currentColor" class="icon" width="128" height="128"><path d="M17,8.998 C17,6.23857625 14.7614237,4 12,4 C9.3112453,4 7.11818189,6.12230671 7.00461951,8.78311038 L7,9 L7,14 C7,14.5522847 6.55228475,15 6,15 L5,15 C3.40231912,15 2.09633912,13.75108 2.00509269,12.1762728 L2,12 L2,11 C2,9.40231912 3.24891996,8.09633912 4.82372721,8.00509269 L5,8 L5.07089004,7.99999177 C5.09830073,7.8083622 5.13347271,7.61923632 5.17607734,7.43294278 C5.18593392,7.3898327 5.19628161,7.3465004 5.20703011,7.3033266 C5.23592957,7.18727142 5.26761902,7.07271033 5.30210658,6.95936808 C5.31030234,6.93243642 5.31858127,6.90580912 5.32701437,6.8792505 C5.34347764,6.82739657 5.36059903,6.77559946 5.37830488,6.72407409 C5.38502492,6.7045132 5.3920106,6.68447867 5.39908453,6.66448586 C5.41397539,6.62241059 5.42906967,6.58101922 5.44454135,6.53981245 C5.45989671,6.4989088 5.47576099,6.45784198 5.49199926,6.41696437 C5.5039832,6.38679773 5.51613188,6.35682831 5.52848127,6.32696296 C5.54814944,6.27939766 5.56833707,6.23207287 5.58902754,6.18501915 C5.5965854,6.16782758 5.60443383,6.15017507 5.61235298,6.13256124 C5.63317026,6.08626684 5.65429253,6.04062505 5.67588872,5.99525236 C5.68418895,5.97781497 5.69248739,5.96056499 5.70085428,5.94335444 L5.7402259,5.8636637 C5.74766847,5.84883816 5.75516215,5.83404272 5.76270672,5.8192776 C5.78341946,5.77874326 5.80446359,5.73853476 5.82588461,5.69855847 C5.88769548,5.58322396 5.95240747,5.47020934 6.02012218,5.35922725 C6.03026104,5.34260964 6.04050233,5.32598113 6.05081102,5.30939888 C6.12912315,5.18343237 6.21126615,5.06021747 6.29712568,4.9398362 C6.30223511,4.93267189 6.30749747,4.9253232 6.31277369,4.91798514 C6.35222754,4.86311295 6.39247632,4.80880826 6.43348433,4.75511442 C6.49536552,4.67407146 6.55947981,4.59381683 6.62529398,4.51503134 C6.7397307,4.37803759 6.85935448,4.24543686 6.98382501,4.11757803 C7.07010535,4.02894321 7.15888368,3.94243079 7.24990035,3.85830479 C7.34870953,3.76697373 7.45023155,3.67839373 7.55426804,3.59275781 C7.58930034,3.5639196 7.62480058,3.53527059 7.66058396,3.50696379 C7.68690333,3.48614628 7.7130214,3.46578616 7.73928668,3.44560816 C7.77681578,3.41677179 7.81512351,3.38795518 7.8537337,3.3595255 C7.87480753,3.34400887 7.89587059,3.32868007 7.91702198,3.31346635 C7.95688953,3.28479236 7.99689509,3.2566482 8.03720568,3.22891544 C8.05880441,3.21405374 8.08090131,3.19903446 8.10308815,3.18413877 C8.14155049,3.15832024 8.17984346,3.13315585 8.21839563,3.10835951 C8.24894285,3.08870905 8.28004157,3.06904812 8.31130462,3.04962671 C8.33543613,3.03463728 8.35935857,3.01997614 8.38337532,3.00545525 C8.42898627,2.97787722 8.47503008,2.95075185 8.52140756,2.92414218 C8.54200123,2.91232487 8.56297847,2.90043122 8.58402283,2.88864312 C8.62390354,2.8663048 8.66390005,2.84441249 8.70413125,2.82290172 C8.74347852,2.80186559 8.78280168,2.78132128 8.82234207,2.76114181 C8.85021099,2.74691864 8.87823209,2.73285487 8.90635988,2.71897449 C8.93654801,2.70407721 8.96688667,2.68937802 8.99734651,2.67489239 C9.04524865,2.65211097 9.09354018,2.62981755 9.142125,2.60806178 C9.16743088,2.59673056 9.19271407,2.58558954 9.21807514,2.57459426 C9.26308803,2.55507866 9.30838154,2.53600778 9.35391481,2.51740268 C9.37384805,2.50925768 9.39387914,2.5011813 9.41395593,2.49319515 C9.46967104,2.47103276 9.52573879,2.44956496 9.5821477,2.42880276 C9.60408586,2.42072796 9.62610423,2.41274969 9.6481737,2.40487904 C9.68820008,2.39060586 9.7281841,2.37675745 9.76833075,2.36326312 C9.8074937,2.35009682 9.84720589,2.33714268 9.88707242,2.32453578 C9.91348217,2.31618518 9.93975504,2.308049 9.96609358,2.30006388 C10.0892751,2.26271713 10.2139683,2.22865616 10.3399965,2.19800653 C10.3714189,2.1903676 10.4023299,2.18307658 10.4333193,2.17599124 C10.4803647,2.16523308 10.5278392,2.15489752 10.5754909,2.14504632 C10.606402,2.1386546 10.637671,2.13241217 10.6690143,2.1263788 C10.7110671,2.11828486 10.7531059,2.11059291 10.7952742,2.10327828 C10.9312134,2.07969808 11.0684856,2.06004041 11.2069816,2.04442401 C11.2315823,2.04165218 11.25563,2.03906831 11.2797138,2.03660653 C11.2909078,2.03546157 11.302561,2.03429906 11.3142227,2.03316516 C11.4615185,2.0188496 11.6098399,2.00911 11.7593502,2.00405902 L12,2 C15.5264691,2 18.4438768,4.60770164 18.92911,7.99999177 L19,8 C20.5976809,8 21.9036609,9.24891996 21.9949073,10.8237272 L22,11 L22,12 C22,13.5976809 20.75108,14.9036609 19.1762728,14.9949073 L19,15 L18.9286809,15.0008051 C18.4996104,17.9874683 16.178264,20.402118 13.155881,20.9048583 C12.7760899,20.9680323 12.3898548,21 12,21 C11.4477153,21 11,20.5522847 11,20 C11,19.4477153 11.4477153,19 12,19 C12.279796,19 12.5562714,18.9771169 12.827712,18.9319657 C15.1479655,18.546017 16.8915868,16.5779664 16.9951302,14.2219744 L17,14 L17,8.998 Z M19,10 L19,13 C19.5128358,13 19.9355072,12.6139598 19.9932723,12.1166211 L20,12 L20,11 C20,10.4871642 19.6139598,10.0644928 19.1166211,10.0067277 L19,10 Z M5,10 C4.48716416,10 4.06449284,10.3860402 4.00672773,10.8833789 L4,11 L4,12 C4,12.5128358 4.38604019,12.9355072 4.88337887,12.9932723 L5,13 L5,10 Z" fill-rule="evenodd"></path></svg>
